<svg id="Capa_1" data-name="Capa 1" xmlns="http://www.w3.org/2000/svg" viewBox="0 0 595.45 136.71"><defs><style>.cls-1{fill:#e1cf7f;stroke:#e1cf7f;}.cls-1,.cls-2{stroke-linecap:round;stroke-linejoin:round;stroke-width:17.07px;}.cls-2{fill:#0f6130;stroke:#0f6130;}</style></defs><g id="SVGRepo_iconCarrier" data-name="SVGRepo iconCarrier"><path class="cls-1" d="M126.35,126.12H32.55A20.91,20.91,0,0,1,11.7,105.27V58.37A20.91,20.91,0,0,1,32.55,37.53h93.8a20.9,20.9,0,0,1,20.84,20.84v46.9A20.91,20.91,0,0,1,126.35,126.12Z"/><path class="cls-2" d="M69.55,11.48h-37A20.91,20.91,0,0,0,11.7,32.32v72.95a20.91,20.91,0,0,0,20.85,20.85h93.8a26.05,26.05,0,0,0,6.77-1.05Z"/></g><path d="M178,98.26V39.33h19.22a33.66,33.66,0,0,1,16.26,3.76,26.91,26.91,0,0,1,10.71,10.36A30.21,30.21,0,0,1,228,68.76a30.44,30.44,0,0,1-3.8,15.3A26.65,26.65,0,0,1,213.45,94.5a33.55,33.55,0,0,1-16.26,3.76Zm10.76-9.49h8.7a20.74,20.74,0,0,0,10.4-2.49,17.55,17.55,0,0,0,6.84-7,21.57,21.57,0,0,0,2.45-10.56,21.49,21.49,0,0,0-2.45-10.6,17.28,17.28,0,0,0-6.84-6.88,20.94,20.94,0,0,0-10.4-2.45h-8.7Z"/><path d="M248.52,99.21a18.76,18.76,0,0,1-7.83-1.51,11.39,11.39,0,0,1-7-10.83,12.81,12.81,0,0,1,1.58-6.37,12.6,12.6,0,0,1,4.91-4.7,24.23,24.23,0,0,1,8.38-2.69l14.08-2.3v7.91l-12.1,2.06a8.82,8.82,0,0,0-4.59,2,4.89,4.89,0,0,0-1.5,3.71,4.18,4.18,0,0,0,1.7,3.52,6.73,6.73,0,0,0,4.23,1.31,11.59,11.59,0,0,0,5.74-1.39A9.83,9.83,0,0,0,260,86.08a10.8,10.8,0,0,0,1.38-5.38V69.63A5.84,5.84,0,0,0,259.24,65a8.51,8.51,0,0,0-5.73-1.86,10.1,10.1,0,0,0-5.9,1.78,10.35,10.35,0,0,0-3.75,4.71l-8.47-4.12a15,15,0,0,1,4-5.89,20.1,20.1,0,0,1,6.44-3.91,22.37,22.37,0,0,1,8.07-1.43,21.31,21.31,0,0,1,9.33,1.94,15.1,15.1,0,0,1,6.29,5.38,14.33,14.33,0,0,1,2.26,8V98.26H262V90.9l2.21-.16a17.2,17.2,0,0,1-3.95,4.63A16.73,16.73,0,0,1,255,98.22,20.14,20.14,0,0,1,248.52,99.21Z"/><path d="M297.72,99.21a21.71,21.71,0,0,1-12-3.28,16.63,16.63,0,0,1-7-8.9l7.75-3.72A13.57,13.57,0,0,0,291.11,89a11.28,11.28,0,0,0,6.61,2.06,7.3,7.3,0,0,0,4.51-1.26,4,4,0,0,0,1.66-3.33,3.2,3.2,0,0,0-.68-2.09A5.52,5.52,0,0,0,301.4,83a14.29,14.29,0,0,0-2.5-1l-7-2a16.78,16.78,0,0,1-8.26-4.83,11.33,11.33,0,0,1-2.81-7.67,12,12,0,0,1,2-6.92,13.35,13.35,0,0,1,5.61-4.63,19.66,19.66,0,0,1,8.27-1.66,19.86,19.86,0,0,1,10.76,2.93,16.05,16.05,0,0,1,6.64,8.22l-7.91,3.72a9.54,9.54,0,0,0-3.72-4.66,10.31,10.31,0,0,0-5.85-1.74,6.46,6.46,0,0,0-4.11,1.18A3.76,3.76,0,0,0,291,67a3.34,3.34,0,0,0,.64,2,4.6,4.6,0,0,0,1.78,1.43,19.61,19.61,0,0,0,2.65,1l6.88,2a17.62,17.62,0,0,1,8.18,4.75A11.05,11.05,0,0,1,314,86.08,11.73,11.73,0,0,1,312,92.92a13.65,13.65,0,0,1-5.69,4.63A20.52,20.52,0,0,1,297.72,99.21Z"/><path d="M322,98.26V38.39h10.36v25.3l-1.42-1.5a11.37,11.37,0,0,1,4.94-5.89,15.53,15.53,0,0,1,8-2,17,17,0,0,1,8.42,2.06,14.71,14.71,0,0,1,5.74,5.73,17.18,17.18,0,0,1,2.05,8.51V98.26H349.76V73a10.23,10.23,0,0,0-1.11-4.91,8.15,8.15,0,0,0-3-3.2,9.5,9.5,0,0,0-9.06,0,8,8,0,0,0-3.08,3.2A10.23,10.23,0,0,0,332.36,73V98.26Z"/><path d="M392.39,99.21a19.74,19.74,0,0,1-8.58-1.86A15,15,0,0,1,377.6,92l1-2.06v8.31H368.9V38.39h10.36V63.77l-1.58-2.13a15.08,15.08,0,0,1,6-5.42,19.08,19.08,0,0,1,8.78-1.94,20.55,20.55,0,0,1,11,3,22.09,22.09,0,0,1,7.79,8.07,22.5,22.5,0,0,1,2.89,11.38,23.06,23.06,0,0,1-2.85,11.39,21.35,21.35,0,0,1-7.75,8.11A21.08,21.08,0,0,1,392.39,99.21Zm-1.19-9.49a12.1,12.1,0,0,0,6.33-1.66,11.49,11.49,0,0,0,4.31-4.59,14.18,14.18,0,0,0,1.54-6.73,14,14,0,0,0-1.54-6.68,11.74,11.74,0,0,0-10.64-6.29,11.42,11.42,0,0,0-10.4,6.29,15.37,15.37,0,0,0,0,13.41,11.48,11.48,0,0,0,10.4,6.25Z"/><path d="M443.09,99.21a23,23,0,0,1-11.51-2.93,22.45,22.45,0,0,1,0-39.07,24.07,24.07,0,0,1,23,0,22.28,22.28,0,0,1,8.18,7.95,21.9,21.9,0,0,1,3.05,11.58,21.7,21.7,0,0,1-3.09,11.55,22.61,22.61,0,0,1-19.61,10.92Zm0-9.49a11.37,11.37,0,0,0,6.13-1.66,11.69,11.69,0,0,0,4.19-4.63A14.28,14.28,0,0,0,455,76.74a14,14,0,0,0-1.54-6.68,12.21,12.21,0,0,0-4.19-4.59,11.14,11.14,0,0,0-6.13-1.7,11.48,11.48,0,0,0-6.25,1.7,12.15,12.15,0,0,0-4.23,4.59,14,14,0,0,0-1.54,6.68,14.28,14.28,0,0,0,1.54,6.69,11.31,11.31,0,0,0,10.48,6.29Z"/><path d="M486.67,99.21a18.7,18.7,0,0,1-7.83-1.51,11.39,11.39,0,0,1-7-10.83,12.7,12.7,0,0,1,1.58-6.37,12.57,12.57,0,0,1,4.9-4.7,24.29,24.29,0,0,1,8.39-2.69l14.08-2.3v7.91l-12.1,2.06a8.82,8.82,0,0,0-4.59,2,4.89,4.89,0,0,0-1.5,3.71,4.18,4.18,0,0,0,1.7,3.52,6.73,6.73,0,0,0,4.23,1.31,11.52,11.52,0,0,0,5.73-1.39,9.92,9.92,0,0,0,3.88-3.83,10.8,10.8,0,0,0,1.38-5.38V69.63A5.84,5.84,0,0,0,497.39,65a8.54,8.54,0,0,0-5.74-1.86,10.07,10.07,0,0,0-5.89,1.78A10.31,10.31,0,0,0,482,69.63l-8.46-4.12a14.91,14.91,0,0,1,4-5.89A20.15,20.15,0,0,1,484,55.71a22.37,22.37,0,0,1,8.07-1.43,21.34,21.34,0,0,1,9.33,1.94,15.16,15.16,0,0,1,6.29,5.38,14.33,14.33,0,0,1,2.25,8V98.26h-9.81V90.9l2.22-.16a17.41,17.41,0,0,1-4,4.63,16.73,16.73,0,0,1-5.22,2.85A20.12,20.12,0,0,1,486.67,99.21Z"/><path d="M519.49,98.26v-43h9.73V64.8l-.79-1.42q1.5-4.83,4.71-6.72a14.79,14.79,0,0,1,7.71-1.9h2.53v9.17h-3.72a9.55,9.55,0,0,0-7.12,2.73q-2.68,2.73-2.69,7.63v24Z"/><path d="M569.08,99.21a21.11,21.11,0,0,1-11.15-3,21.43,21.43,0,0,1-7.75-8.11,23.06,23.06,0,0,1-2.85-11.39,22.78,22.78,0,0,1,2.85-11.38A21.7,21.7,0,0,1,558,57.29a20.77,20.77,0,0,1,11-3,19.12,19.12,0,0,1,8.74,1.94,15,15,0,0,1,6,5.42l-1.58,2.13V38.39h10.36V98.26h-9.8V90l1.1,2.06a14.32,14.32,0,0,1-6.17,5.34A20,20,0,0,1,569.08,99.21Zm1.11-9.49a11.37,11.37,0,0,0,10.48-6.25,15.37,15.37,0,0,0,0-13.41,12,12,0,0,0-16.73-4.59,12,12,0,0,0-4.31,4.59,14,14,0,0,0-1.54,6.68,14.18,14.18,0,0,0,1.54,6.73,11.56,11.56,0,0,0,4.31,4.59A12,12,0,0,0,570.19,89.72Z"/></svg>