<svg id="Capa_1" data-name="Capa 1" xmlns="http://www.w3.org/2000/svg" viewBox="0 0 500 500"><defs><style>.cls-1{fill:#e1cf7f;stroke:#e1cf7f;}.cls-1,.cls-2{stroke-linecap:round;stroke-linejoin:round;stroke-width:17.07px;}.cls-2{fill:#0f6130;stroke:#0f6130;}</style></defs><g id="SVGRepo_iconCarrier" data-name="SVGRepo iconCarrier"><path class="cls-1" d="M415.78,452.59H84.26a73.91,73.91,0,0,1-73.7-73.69V213.14a73.91,73.91,0,0,1,73.7-73.66H415.78a73.88,73.88,0,0,1,73.66,73.66V378.9A73.91,73.91,0,0,1,415.78,452.59Z"/><path class="cls-2" d="M215,47.41H84.26a73.91,73.91,0,0,0-73.7,73.66V378.9a73.91,73.91,0,0,0,73.7,73.69H415.78a92.42,92.42,0,0,0,23.93-3.71Z"/></g></svg>